<svg xmlns="http://www.w3.org/2000/svg" version="1.1" xmlns:xlink="http://www.w3.org/1999/xlink" width="512" height="512" x="0" y="0" viewBox="0 0 512 512" style="enable-background:new 0 0 512 512" xml:space="preserve" class=""><g><path fill="#fbf7f7" d="M326.915 512h-141.83c-24.385 0-44.154-19.768-44.154-44.154 0-24.385 19.768-44.154 44.154-44.154h141.83c24.385 0 44.154 19.768 44.154 44.154 0 24.386-19.768 44.154-44.154 44.154z" opacity="1" data-original="#fbf7f7"></path><path fill="#f7ebe7" d="M326.915 423.693h-24.641c24.385 0 44.154 19.768 44.154 44.154 0 24.385-19.768 44.154-44.154 44.154h24.641c24.385 0 44.154-19.768 44.154-44.154 0-24.386-19.768-44.154-44.154-44.154z" opacity="1" data-original="#f7ebe7"></path><path fill="#ff5cab" d="M454.382 198.382c0-108.544-87.174-196.728-195.33-198.359-109.609-1.654-201.18 88.268-201.434 197.89-.223 96.287 68.157 176.633 159.002 194.93a13.332 13.332 0 0 1 8.694 6.017l19.37 31.128c5.216 8.382 17.416 8.382 22.632 0l19.369-31.127a13.354 13.354 0 0 1 8.712-6.022c90.688-18.273 158.985-98.384 158.985-194.457z" opacity="1" data-original="#ff5cab"></path><path fill="#ff3b9b" d="M259.053.022a196.46 196.46 0 0 0-15.52.381c103.649 6.545 185.691 92.678 185.691 197.978 0 96.073-68.297 176.184-158.986 194.458a13.35 13.35 0 0 0-8.712 6.022l-18.106 29.096 1.264 2.031c5.216 8.382 17.416 8.382 22.632 0l19.369-31.127a13.357 13.357 0 0 1 8.712-6.022c90.689-18.274 158.986-98.385 158.986-194.458C454.382 89.838 367.208 1.654 259.053.022z" opacity="1" data-original="#ff3b9b" class=""></path><circle cx="256" cy="198.382" r="167.563" fill="#fbf7f7" opacity="1" data-original="#fbf7f7"></circle><path fill="#f7ebe7" d="M256 30.818c-4.45 0-8.859.178-13.222.518 86.361 6.742 154.341 78.953 154.341 167.045s-67.98 160.304-154.341 167.045c4.363.341 8.772.518 13.222.518 92.543 0 167.563-75.021 167.563-167.563S348.543 30.818 256 30.818z" opacity="1" data-original="#f7ebe7"></path><path fill="#fbf7f7" d="M256 407.756a7.725 7.725 0 0 1-7.726-7.726v-5.558a7.726 7.726 0 1 1 15.452 0v5.558a7.726 7.726 0 0 1-7.726 7.726z" opacity="1" data-original="#fbf7f7"></path><path fill="#ff5cab" d="M239.107 461.45h-54.848a7.726 7.726 0 1 1 0-15.452h54.848c4.268 0 7.726 3.459 7.726 7.726s-3.458 7.726-7.726 7.726zM327.741 461.45h-63.145a7.726 7.726 0 1 1 0-15.452h63.145c4.268 0 7.726 3.459 7.726 7.726s-3.458 7.726-7.726 7.726zM208.811 489.695h-24.552a7.726 7.726 0 1 1 0-15.452h24.552c4.268 0 7.726 3.459 7.726 7.726s-3.458 7.726-7.726 7.726zM327.741 489.695H234.3a7.726 7.726 0 1 1 0-15.452h93.441c4.268 0 7.726 3.459 7.726 7.726s-3.458 7.726-7.726 7.726zM235.232 97.558l-71.71 52.1c-12.384 8.997-17.565 24.945-12.835 39.503l27.391 84.3a35.332 35.332 0 0 0 33.603 24.414h88.638a35.332 35.332 0 0 0 33.603-24.414l27.391-84.3a35.333 35.333 0 0 0-12.835-39.503l-71.71-52.1a35.333 35.333 0 0 0-41.536 0z" opacity="1" data-original="#ff5cab"></path><path fill="#ff3b9b" d="m348.477 149.658-71.709-52.1c-12.275-8.919-28.854-8.984-41.204-.221a35.236 35.236 0 0 1 15.971 6.402l71.71 52.1a35.333 35.333 0 0 1 12.835 39.503l-27.391 84.3c-2.475 7.618-7.384 13.928-13.682 18.233h5.312a35.332 35.332 0 0 0 33.603-24.414l27.391-84.3a35.332 35.332 0 0 0-12.836-39.503z" opacity="1" data-original="#ff3b9b" class=""></path><path fill="#fbf7f7" d="m317.578 241.342-4.518-21.548c-4.882-23.279-25.666-39.253-49.418-38.035l-20.313 1.061a76.16 76.16 0 0 1-.12-10.46h39.29c4.268 0 7.726-3.458 7.726-7.726s-3.459-7.726-7.726-7.726h-38.293l1.144-17.573a7.727 7.727 0 0 0-7.208-8.212c-4.244-.277-7.935 2.95-8.212 7.208l-1.209 18.576h-26.737a7.725 7.725 0 0 0-7.726 7.726 7.725 7.725 0 0 0 7.726 7.726h25.757c-.2 4.179-.112 8.341.254 12.463-10.939 3.423-19.901 11.716-23.992 22.805l-2.487 6.74c-6.435 17.435.667 36.676 16.885 45.751 5.696 3.188 11.985 4.799 18.307 4.799 4.767 0 9.551-.917 14.114-2.764a37.433 37.433 0 0 0 14.617-10.596c.567.417 18.065 12.703 18.065 12.703a7.69 7.69 0 0 0 4.428 1.4 7.726 7.726 0 0 0 4.442-14.055l-16.354-11.461a75.28 75.28 0 0 1-3.215-2.395l3.7-12.355a7.727 7.727 0 0 0-14.803-4.433l-1.349 4.504a78.263 78.263 0 0 1-14.219-27.319l18.314-.956c16.113-.844 30.181 9.999 33.489 25.774l4.519 21.548c.875 4.177 4.973 6.859 9.147 5.976a7.724 7.724 0 0 0 5.975-9.146zm-72.557 6.488a21.98 21.98 0 0 1-19.073-1.197c-9.542-5.34-13.72-16.66-9.935-26.917l2.487-6.74a22.047 22.047 0 0 1 12.19-12.716c4.056 15.381 12.015 29.61 23.118 41.12a22.053 22.053 0 0 1-8.787 6.45z" opacity="1" data-original="#fbf7f7"></path></g></svg>